<?xml version="1.0" encoding="UTF-8"?>
<svg width="80px" height="80px" viewBox="0 0 80 80" version="1.1" xmlns="http://www.w3.org/2000/svg" xmlns:xlink="http://www.w3.org/1999/xlink">
    <!-- Generator: Sketch 51.3 (57544) - http://www.bohemiancoding.com/sketch -->
    <title>Group 582</title>
    <desc>Created with Sketch.</desc>
    <defs>
        <circle id="path-1" cx="40" cy="40" r="40"></circle>
    </defs>
    <g id="Home_Page" stroke="none" stroke-width="1" fill="none" fill-rule="evenodd">
        <g id="001_Linarc_Marketing_Page" transform="translate(-260.000000, -2760.000000)">
            <g id="Group-582" transform="translate(260.000000, 2760.000000)">
                <mask id="mask-2" fill="white">
                    <use xlink:href="#path-1"></use>
                </mask>
                <use id="Mask" fill="#47BB60" xlink:href="#path-1"></use>
                <g mask="url(#mask-2)">
                    <g transform="translate(-22.000000, 7.000000)">
                        <polyline id="Fill-553" fill="#F1C9B1" points="68.4831176 64.023033 65.9887941 62.8773626 65.9887941 54.9763516 49.9793824 54.9763516 49.9793824 62.8773626 47.4747353 63.9541978 48.1417941 86.3604396 49.9793824 86.3604396 49.9793824 89.7958681 65.9887941 89.7958681 65.9887941 86.3604396 67.8160588 86.3604396 68.4831176 64.023033"></polyline>
                        <path d="M49.9793824,58.8572308 L49.9754118,58.8564396 L49.9754118,55.8735824 C49.977,55.8751648 49.9777941,55.875956 49.9793824,55.8767473 L49.9793824,58.8572308" id="Fill-554" fill="#635E75"></path>
                        <path d="M65.9848235,62.2064176 L49.9793824,58.8572308 L49.9793824,55.8767473 C52.7127353,57.9505055 55.6803529,59.2615385 58.0730294,59.3446154 C58.1572059,59.3477802 58.2429706,59.3485714 58.3287353,59.3485714 C60.5665588,59.3485714 63.3348529,58.3635165 65.9848235,56.7067253 L65.9848235,62.2064176" id="Fill-555" fill="#E7A689"></path>
                        <path d="M23.8854706,76.0066813 C26.8205294,69.6334945 35.0587059,68.0581978 46.8656471,64.0103736 C47.2857353,63.864 47.7129706,63.7184176 48.1394118,63.5657143 L48.1529118,63.6321758 C48.9303529,68.0123077 51.138,73.6821099 57.9801176,74.3475165 C64.8230294,73.6821099 67.0298824,68.0123077 67.8073235,63.6321758 L67.8208235,63.5657143 C68.2480588,63.7184176 68.6745,63.864 69.0953824,64.0103736 C80.9023235,68.0581978 89.1405,69.6334945 92.0755588,76.0066813 C95.7523235,84.1276484 85.1913529,92.5690549 85.1913529,92.5690549 C85.1913529,92.5690549 84.2376176,143.598066 82.6430294,143.598066 L33.3172059,143.598066 C31.7234118,143.598066 30.7696765,92.5690549 30.7696765,92.5690549 C30.7696765,92.5690549 20.2087059,84.1276484 23.8854706,76.0066813" id="Fill-556" fill="#FFFFFE"></path>
                        <polyline id="Fill-557" fill="#E05845" points="54.1286471 72.9462857 55.6652647 75.8792967 60.3418235 75.8792967 61.8347647 72.9462857 57.9817059 69.8083516 54.1286471 72.9462857"></polyline>
                        <polyline id="Fill-558" fill="#E5E6E3" points="57.9817059 69.8083516 62.9052353 74.9733626 72.4815 65.1726593 66.0705882 62.3599121 64.0940294 64.1812747 57.9817059 69.8083516"></polyline>
                        <polyline id="Fill-559" fill="#E5E6E3" points="57.9817059 69.8083516 53.0581765 74.9733626 43.4819118 65.1726593 49.8928235 62.3599121 51.8693824 64.1812747 57.9817059 69.8083516"></polyline>
                        <path d="M84.4695,59.3327473 L89.8139118,38.6940659 C90.3618529,36.5783736 89.0849118,34.4215385 86.9614412,33.8748132 L84.9618529,33.3613187 C82.8383824,32.8153846 80.6728235,34.0876484 80.1256765,36.2033407 L74.7812647,56.842022 C74.2333235,58.9577143 75.5102647,61.1153407 77.6337353,61.6612747 L79.6325294,62.1747692 C81.756,62.7207033 83.9215588,61.4484396 84.4695,59.3327473" id="Fill-561" fill="#474543"></path>
                        <path d="M74.8201765,56.6916923 C74.8233529,56.6782418 74.8265294,56.664 74.8305,56.6505495 L78.4302353,42.7498022 L74.8201765,56.6916923" id="Fill-562" fill="#5B6692"></path>
                        <path d="M78.4302353,42.7498022 L80.0756471,36.3948132 C80.0764412,36.394022 80.0764412,36.3924396 80.0772353,36.3908571 L78.4302353,42.7498022 M86.7915,33.8312967 L85.3986176,33.4736703 L86.7692647,33.8257582 C86.7764118,33.8273407 86.7843529,33.8297143 86.7915,33.8312967" id="Fill-563" fill="#475171"></path>
                        <path d="M76.4036471,61.0322637 C75.0822353,60.0646154 74.4032647,58.3714286 74.8201765,56.6916923 L80.0772353,36.3908571 C80.5632353,34.5196484 82.2555,33.2782418 84.1097647,33.2782418 C84.4544118,33.2782418 84.8046176,33.320967 85.1540294,33.4103736 L85.3986176,33.4736703 L86.7915,33.8312967 C87.7222059,34.0765714 88.4821765,34.6264615 89.0245588,35.3353846 C88.6084412,35.0307692 88.1327647,34.7926154 87.6030882,34.6565275 L85.9878529,34.2411429 C85.6384412,34.1517363 85.2882353,34.109011 84.9435882,34.109011 C83.0877353,34.109011 81.3946765,35.3527912 80.9094706,37.2255824 L75.6643235,57.4813187 C75.3315882,58.7654505 75.654,60.0535385 76.4036471,61.0322637" id="Fill-564" fill="#373734"></path>
                        <path d="M85.6789412,37.9020659 L85.9457647,36.8727033 C86.0553529,36.4478242 85.7964706,36.0102857 85.3708235,35.9010989 C84.9443824,35.7911209 84.5052353,36.0490549 84.3956471,36.4739341 L84.1288235,37.5032967 C84.0184412,37.9281758 84.2773235,38.3657143 84.7037647,38.4749011 C85.1302059,38.5848791 85.5693529,38.3269451 85.6789412,37.9020659" id="Fill-565" fill="#323138"></path>
                        <path d="M75.7127647,50.4585495 L81.8425588,58.7789011 L91.2123529,55.2801758 L88.4178529,44.3013626 C87.6015,42.1318681 83.5086176,41.1555165 80.9213824,42.1215824 C78.3333529,43.0876484 74.8964118,48.2882637 75.7127647,50.4585495" id="Fill-566" fill="#F1C9B1"></path>
                        <path d="M101.331794,102.378462 C102.698471,102.378462 104.057206,101.915604 105.160235,101.005714 C107.132824,99.3797802 107.853088,96.6865055 106.954941,94.2978462 L90.8724706,51.536967 L79.6293529,55.7343297 L89.6137941,82.2817582 L86.3920588,80.3274725 L80.1463235,92.5381978 L98.2101176,101.505758 C99.1741765,102.090462 100.255765,102.378462 101.331794,102.378462" id="Fill-567" fill="#FFFFFE"></path>
                        <path d="M76.4727353,33.0915165 L77.2597059,26.0956484 C77.5813235,16.9231648 69.0421765,9.18435165 59.8423235,8.8647033 C50.6361176,8.54426374 41.5815882,15.6706813 41.2607647,24.843956 L41.5561765,31.8698901 C41.0368235,31.9759121 40.5635294,32.1950769 40.1640882,32.5131429 C39.4223824,33.0986374 38.9379706,33.9863736 38.9022353,35.0030769 L38.7807353,38.4567033 C38.7172059,40.2828132 40.1410588,41.8153846 41.9770588,41.8905495 C41.6737059,50.5527033 51.8320588,59.127033 58.0730294,59.3446154 C64.314,59.5614066 75.0472941,51.714989 75.3514412,43.0528352 C77.1810882,43.1042637 78.7129412,41.6761319 78.7772647,39.850022 L78.8979706,36.3956044 C78.9527647,34.8361319 77.9148529,33.498989 76.4727353,33.0915165" id="Fill-571" fill="#F1C9B1"></path>
                        <path d="M58.3247647,59.3485714 C58.239,59.3485714 58.1540294,59.346989 58.0698529,59.3446154 L58.5709412,45.0640879 L54.5701765,44.9248352 C54.5701765,44.9248352 56.4006176,37.512 59.0132647,32.4435165 L59.8423235,8.8647033 C68.8801765,9.17881319 77.2811471,16.6533626 77.2684412,25.6138022 C77.2684412,25.7736264 77.2652647,25.935033 77.2597059,26.0956484 L76.4727353,33.0915165 C77.8815,33.4894945 78.9043235,34.7736264 78.9003529,36.2864176 C78.9003529,36.3228132 78.8995588,36.3592088 78.8979706,36.3956044 L78.7772647,39.850022 C78.7145294,41.6444835 77.2342941,43.0544176 75.4459412,43.0544176 C75.4141765,43.0544176 75.3824118,43.0544176 75.3514412,43.0528352 C75.0512647,51.5978901 64.6030588,59.3485714 58.3247647,59.3485714 M66.6058235,32.1001319 C65.151,32.1001319 63.9717353,33.2758681 63.9717353,34.7253626 C63.9717353,36.1748571 65.151,37.3498022 66.6058235,37.3498022 C68.0606471,37.3498022 69.2399118,36.1748571 69.2399118,34.7253626 C69.2399118,33.2758681 68.0606471,32.1001319 66.6058235,32.1001319" id="Fill-572" fill="#E7A689"></path>
                        <path d="M51.273,36.8165275 C49.8173824,36.8165275 48.6381176,35.6415824 48.6381176,34.1920879 C48.6381176,32.7418022 49.8173824,31.5668571 51.273,31.5668571 C52.7278235,31.5668571 53.9070882,32.7418022 53.9070882,34.1920879 C53.9070882,35.6415824 52.7278235,36.8165275 51.273,36.8165275" id="Fill-573" fill="#C57449"></path>
                        <path d="M53.9301176,33.5274725 C53.9301176,34.976967 52.7508529,36.1519121 51.2960294,36.1519121 C49.8412059,36.1519121 48.6619412,34.976967 48.6619412,33.5274725 C48.6619412,32.077978 49.8412059,30.903033 51.2960294,30.903033 C52.7508529,30.903033 53.9301176,32.077978 53.9301176,33.5274725" id="Fill-574" fill="#2D211A"></path>
                        <path d="M52.8771176,32.7402198 C52.8771176,33.1025934 52.5825,33.3961319 52.2187941,33.3961319 C51.8550882,33.3961319 51.5596765,33.1025934 51.5596765,32.7402198 C51.5596765,32.3778462 51.8550882,32.0835165 52.2187941,32.0835165 C52.5825,32.0835165 52.8771176,32.3778462 52.8771176,32.7402198" id="Fill-575" fill="#FFFFFE"></path>
                        <path d="M66.6058235,37.3498022 C65.151,37.3498022 63.9717353,36.1748571 63.9717353,34.7253626 C63.9717353,33.2758681 65.151,32.1001319 66.6058235,32.1001319 C68.0606471,32.1001319 69.2399118,33.2758681 69.2399118,34.7253626 C69.2399118,36.1748571 68.0606471,37.3498022 66.6058235,37.3498022" id="Fill-576" fill="#BF613C"></path>
                        <path d="M69.2637353,34.0607473 C69.2637353,35.5102418 68.0836765,36.685978 66.6288529,36.685978 C65.1740294,36.685978 63.9947647,35.5102418 63.9947647,34.0607473 C63.9947647,32.6112527 65.1740294,31.4363077 66.6288529,31.4363077 C68.0836765,31.4363077 69.2637353,32.6112527 69.2637353,34.0607473" id="Fill-577" fill="#2D211A"></path>
                        <path d="M68.2099412,33.2734945 C68.2099412,33.6358681 67.9153235,33.9294066 67.5516176,33.9294066 C67.1879118,33.9294066 66.8932941,33.6358681 66.8932941,33.2734945 C66.8932941,32.9111209 67.1879118,32.6175824 67.5516176,32.6175824 C67.9153235,32.6175824 68.2099412,32.9111209 68.2099412,33.2734945" id="Fill-578" fill="#FFFFFE"></path>
                        <path d="M64.3457647,48.8508132 C64.2425294,51.7854066 61.4726471,54.0712088 58.1595882,53.9556923 C54.8457353,53.8401758 52.2426176,51.3676484 52.3458529,48.4330549 L64.3457647,48.8508132" id="Fill-579" fill="#E05844"></path>
                        <path d="M62.4160588,50.778989 L54.0039706,50.4862418 C53.5656176,50.4712088 53.2225588,50.1040879 53.2376471,49.6673407 L53.2797353,48.4654945 L63.2800588,48.8136264 L63.2379706,50.0154725 C63.2220882,50.4522198 62.8544118,50.794022 62.4160588,50.778989" id="Fill-580" fill="#FFFFFE"></path>
                        <path d="M77.8521176,32.1420659 C77.2247647,34.4341978 76.464,35.3852308 75.4975588,37.6196044 L75.6698824,31.1878681 L72.3322059,19.7802198 C72.3322059,19.7802198 66.3675882,20.8428132 59.3976176,20.8926593 C52.4546471,20.3585934 46.5789706,18.8837802 46.5789706,18.8837802 L42.3907941,30.0303297 L42.1652647,36.4596923 C41.7705882,35.3432967 40.4428235,32.0289231 40.2069706,30.8318242 C38.7473824,23.5329231 39.0713824,16.3748571 41.6475,10.872 C41.6475,10.872 46.0953529,0.306197802 60.1012059,0.807032967 C60.3950294,0.810989011 60.6753529,0.814153846 60.9548824,0.823648352 C64.7348824,0.954989011 67.3769118,1.75885714 69.8926765,3.10945055 C69.8926765,3.10945055 74.0149412,5.28131868 77.5392353,3.74162637 C77.6551765,3.69257143 77.7854118,3.78356044 77.7671471,3.90857143 C77.6909118,4.37142857 77.4574412,5.31454945 76.7467059,6.17459341 C77.6456471,6.2458022 78.6613235,6.21415385 79.8501176,6.0029011 L79.8898235,5.99815385 L79.8882353,6.04404396 C79.893,8.38523077 79.0067647,10.436044 77.8132059,12.130022 C79.9970294,17.799033 79.8191471,24.9618462 77.8521176,32.1420659" id="Fill-581" fill="#44372D"></path>
                    </g>
                </g>
            </g>
        </g>
    </g>
</svg>