<?xml version="1.0" encoding="UTF-8"?>
<svg width="80px" height="80px" viewBox="0 0 80 80" version="1.1" xmlns="http://www.w3.org/2000/svg" xmlns:xlink="http://www.w3.org/1999/xlink">
    <!-- Generator: Sketch 51.3 (57544) - http://www.bohemiancoding.com/sketch -->
    <title>Group 665 Copy</title>
    <desc>Created with Sketch.</desc>
    <defs>
        <circle id="path-1" cx="40" cy="40" r="40"></circle>
        <path d="M87.5110274,61.5124953 C91.0572945,55.4588915 93.0990411,48.4115094 93.0990411,40.882033 C93.0990411,18.3571132 74.9023973,0.0967075472 52.455411,0.0967075472 C30.0091438,0.0967075472 11.8125,18.3571132 11.8125,40.882033 C11.8125,48.4115094 13.8542466,55.4596132 17.4005137,61.513217 C6.88541096,71.0915943 0.283356164,84.9164434 0.283356164,100.289335 C0.283356164,129.204892 23.6415411,152.645646 52.4561301,152.645646 C81.2707192,152.645646 104.628904,129.204892 104.628904,100.289335 C104.628904,84.9164434 98.0261301,71.0908726 87.5110274,61.5124953" id="path-3"></path>
    </defs>
    <g id="Home_Page" stroke="none" stroke-width="1" fill="none" fill-rule="evenodd">
        <g id="001_Linarc_Marketing_Page" transform="translate(-260.000000, -2430.000000)">
            <g id="Group-665-Copy" transform="translate(260.000000, 2430.000000)">
                <mask id="mask-2" fill="white">
                    <use xlink:href="#path-1"></use>
                </mask>
                <use id="Mask" fill="#F58545" xlink:href="#path-1"></use>
                <g mask="url(#mask-2)">
                    <g transform="translate(-13.000000, -12.000000)">
                        <mask id="mask-4" fill="white">
                            <use xlink:href="#path-3"></use>
                        </mask>
                        <g id="Clip-634" stroke="none" fill="none"></g>
                        <polyline id="Fill-636" stroke="none" fill="#F1C9B1" fill-rule="evenodd" mask="url(#mask-4)" points="61.9694178 75.1280519 59.7097603 74.083033 59.7097603 66.2699292 45.2111301 66.2699292 45.2111301 74.083033 42.9428425 75.0645425 43.5469521 95.503033 45.2111301 95.503033 45.2111301 98.6359245 59.7097603 98.6359245 59.7097603 95.503033 61.3653082 95.503033 61.9694178 75.1280519"></polyline>
                        <path d="M59.7097603,73.6132075 L45.2111301,72.6980943 L45.2111301,67.2824717 C47.6973288,69.0073302 50.3431849,70.0545142 52.4575685,70.0545142 C54.5733904,70.0545142 57.2221233,69.0058868 59.7097603,67.2788632 L59.7097603,73.6132075" id="Fill-637" stroke="none" fill="#E49D7E" fill-rule="evenodd" mask="url(#mask-4)"></path>
                        <path d="M62.172226,75.175684 L61.6328425,77.2058208 C60.7007877,79.8862075 58.3109589,84.2690802 52.6359247,84.2690802 C46.2330822,84.2690802 43.7907534,78.6889104 43.0327397,76.2712217 L42.7421918,75.175684 C30.9498288,79.6213443 34.5680137,116.681264 34.5680137,116.681264 L34.4939384,147.461689 L52.4863356,147.464575 L71.4438699,147.461689 L70.9497945,116.681264 C70.9497945,116.681264 73.9638699,79.6213443 62.172226,75.175684" id="Fill-638" stroke="none" fill="#FFFFFE" fill-rule="evenodd" mask="url(#mask-4)"></path>
                        <polyline id="Fill-639" stroke="none" fill="#E05845" fill-rule="evenodd" mask="url(#mask-4)" points="55.9455822 83.2673632 54.5539726 85.9419764 50.3187329 85.9419764 48.9666781 83.2673632 52.4561301 80.4051085 55.9455822 83.2673632"></polyline>
                        <polyline id="Fill-640" stroke="none" fill="#E5E6E3" fill-rule="evenodd" mask="url(#mask-4)" points="52.4568493 80.4051085 47.9979452 85.1163538 40.3739384 75.988316 45.1320205 73.6103208 46.9213356 75.2723915 52.4568493 80.4051085"></polyline>
                        <polyline id="Fill-641" stroke="none" fill="#E5E6E3" fill-rule="evenodd" mask="url(#mask-4)" points="59.785274 73.6124858 52.4568493 80.4043868 56.9157534 85.1185189 64.5383219 75.9854292 59.785274 73.6124858"></polyline>
                        <polyline id="Fill-642" stroke="none" fill="#E05845" fill-rule="evenodd" mask="url(#mask-4)" points="54.5539726 86.5814009 56.2778425 142.280618 52.4561301 146.520594 48.6344178 142.280618 50.3187329 86.5814009 54.5539726 86.5814009"></polyline>
                        <path d="M92.1245548,117.998363 C93.2349658,114.598443 93.2184247,110.932939 92.0742123,107.543844 C89.8555479,100.97134 85.6167123,87.1486557 84.432226,84.5130142 C81.7741438,78.6990142 73.2144863,78.9162453 62.5217466,75.2240377 C62.1413014,75.0905236 61.7543836,74.9570094 61.3674658,74.8177217 L61.3667466,74.8177217 C60.7381849,78.5027123 52.4561301,114.125731 52.4561301,114.125731 C52.4561301,114.125731 44.1740753,78.5027123 43.5455137,74.8184434 L43.5447945,74.8177217 C43.1578767,74.9570094 42.7709589,75.0905236 42.3905137,75.2240377 C31.697774,78.9162453 23.1381164,78.6990142 20.4800342,84.5130142 C19.2955479,87.147934 15.0574315,100.969175 12.8380479,107.541679 C11.6938356,110.932217 11.6772945,114.599165 12.7877055,118.000528 C15.2408219,125.512684 20.2779452,135.722547 22.4513014,138.963693 C24.3858904,141.849042 27.7667466,142.894061 30.2126712,142.082873 C29.8782534,143.636689 29.7718151,144.788519 30.1206164,144.788519 C30.1206164,144.788519 40.9643836,144.788519 52.4546918,144.788519 L52.4561301,144.642736 L52.4575685,144.788519 C63.9478767,144.788519 74.7916438,144.788519 74.7916438,144.788519 C75.1404452,144.788519 75.0340068,143.636689 74.699589,142.082873 C77.1455137,142.894061 80.5263699,141.849042 82.4609589,138.963693 C84.6350342,135.721825 89.6721575,125.510519 92.1245548,117.998363" id="Fill-643" stroke="none" fill="#3B3940" fill-rule="evenodd" mask="url(#mask-4)"></path>
                        <polyline id="Fill-644" stroke="none" fill="#474543" fill-rule="evenodd" mask="url(#mask-4)" points="37.4979452 76.0135755 37.7338356 82.9649717 41.1930822 85.8214528 38.5011986 89.5143821 52.3647945 114.125731 43.5987329 72.8648066 37.4979452 76.0135755"></polyline>
                        <polyline id="Fill-645" stroke="none" fill="#474543" fill-rule="evenodd" mask="url(#mask-4)" points="67.4150342 76.0135755 67.1784247 82.9649717 63.7191781 85.8214528 66.4110616 89.5143821 52.5474658 114.125731 61.3135274 72.8648066 67.4150342 76.0135755"></polyline>
                        <path d="M68.2780479,45.5391509 L68.7685274,39.136967 C68.7685274,30.7645472 60.7942808,23.9813066 52.4575685,23.9813066 C44.1151027,23.9813066 36.1466096,30.7645472 36.1466096,39.136967 L36.637089,45.5326557 C36.1703425,45.6459623 35.7489041,45.8603066 35.397226,46.1626981 C34.7449315,46.7205708 34.3342808,47.54475 34.3342808,48.4728538 L34.3342808,51.6252311 C34.3342808,53.2916321 35.6719521,54.6440943 37.3361301,54.6541981 C37.3361301,62.5604009 46.8019521,70.0545142 52.4575685,70.0545142 C58.1131849,70.0545142 67.5790068,62.5611226 67.5790068,54.6549198 C69.2374315,54.6433726 70.5779795,53.2930755 70.5779795,51.6259528 L70.5779795,48.4735755 C70.5779795,47.0503868 69.5963014,45.8639151 68.2780479,45.5391509" id="Fill-646" stroke="none" fill="#F1C9B1" fill-rule="evenodd" mask="url(#mask-4)"></path>
                        <path d="M66.9590753,58.2367075 C66.9605137,58.2338208 66.9612329,58.230934 66.9619521,58.2280472 C66.9612329,58.230934 66.9605137,58.2338208 66.9590753,58.2367075 M66.9669863,58.2143349 C66.9677055,58.2121698 66.9684247,58.2100047 66.9691438,58.2078396 C66.9684247,58.2100047 66.9677055,58.2121698 66.9669863,58.2143349 M66.982089,58.1695896 C66.9993493,58.1176274 67.0158904,58.0663868 67.0331507,58.0144245 C67.0158904,58.0656651 66.9993493,58.1183491 66.982089,58.1695896 M67.0331507,58.0137028 C67.2711986,57.2689104 67.4373288,56.509684 67.5200342,55.744684 C67.4380479,56.509684 67.2711986,57.2689104 67.0331507,58.0137028 M67.5207534,55.7403538 C67.5336986,55.6133349 67.5452055,55.4855943 67.5545548,55.3585755 C67.5452055,55.4855943 67.5336986,55.6133349 67.5207534,55.7403538 M67.5559932,55.3347594 C67.5567123,55.3181604 67.5581507,55.3001179 67.5588699,55.2835189 C67.5581507,55.3001179 67.5567123,55.3181604 67.5559932,55.3347594 M67.559589,55.2791887 C67.5624658,55.2344434 67.5646233,55.1896981 67.5667808,55.1449528 C67.5646233,55.1896981 67.5624658,55.2344434 67.559589,55.2791887 M67.5667808,55.1406226 C67.5710959,55.0532972 67.5746918,54.9659717 67.5761301,54.8786462 C67.5746918,54.9659717 67.5710959,55.0532972 67.5667808,55.1406226" id="Fill-647" stroke="none" fill="#B67D63" fill-rule="evenodd" mask="url(#mask-4)"></path>
                        <path d="M52.455411,70.0537925 L52.455411,57.0206462 L48.8307534,57.0206462 C48.8307534,57.0206462 50.2518493,50.2049292 52.455411,45.5023443 L52.4575685,23.9813066 C60.7942808,23.9813066 68.7685274,30.7645472 68.7685274,39.136967 L68.2780479,45.5391509 C69.5963014,45.8639151 70.5779795,47.0503868 70.5779795,48.4735755 L70.5779795,51.6259528 C70.5779795,53.2930755 69.2374315,54.6433726 67.5790068,54.6549198 C67.5790068,54.7292547 67.5782877,54.8043113 67.5761301,54.8786462 C67.5746918,54.9659717 67.5710959,55.0532972 67.5667808,55.1406226 C67.5667808,55.142066 67.5667808,55.1435094 67.5667808,55.1449528 C67.5646233,55.1896981 67.5624658,55.2344434 67.559589,55.2791887 C67.559589,55.2806321 67.559589,55.2820755 67.5588699,55.2835189 C67.5581507,55.3001179 67.5567123,55.3181604 67.5559932,55.3347594 C67.555274,55.3426981 67.5545548,55.3499151 67.5545548,55.3585755 C67.5452055,55.4855943 67.5336986,55.6133349 67.5207534,55.7403538 C67.5200342,55.7417972 67.5200342,55.7432406 67.5200342,55.744684 C67.4373288,56.509684 67.2711986,57.2689104 67.0331507,58.0137028 C67.0331507,58.0137028 67.0331507,58.0137028 67.0331507,58.0144245 C67.0158904,58.0663868 66.9993493,58.1176274 66.982089,58.1695896 C66.977774,58.1833019 66.9734589,58.1948491 66.9691438,58.2078396 C66.9684247,58.2100047 66.9677055,58.2121698 66.9669863,58.2143349 C66.9655479,58.2186651 66.9641096,58.223717 66.9619521,58.2280472 C66.9612329,58.230934 66.9605137,58.2338208 66.9590753,58.2367075 C64.7663014,64.6814717 57.2472945,70.0530708 52.455411,70.0537925 M59.4573288,46.6823208 C59.4292808,46.6823208 59.4005137,46.6830425 59.3724658,46.6837642 C58.0556507,46.7299528 57.0257877,47.8384811 57.0718151,49.1599104 C57.1164041,50.4531934 58.1750342,51.4707877 59.4544521,51.4707877 C59.4825,51.4707877 59.5105479,51.470066 59.5393151,51.4693443 C60.8561301,51.4231557 61.8859932,50.3146274 61.8399658,48.9931981 C61.7953767,47.6999151 60.7367466,46.6823208 59.4573288,46.6823208" id="Fill-648" stroke="none" fill="#E7A689" fill-rule="evenodd" mask="url(#mask-4)"></path>
                        <path d="M45.5599315,51.4707877 C44.2805137,51.4707877 43.2218836,50.4531934 43.1765753,49.1599104 C43.1312671,47.8384811 44.1611301,46.7299528 45.4779452,46.6837642 C45.5067123,46.6830425 45.5347603,46.6823208 45.5628082,46.6823208 C46.842226,46.6823208 47.9008562,47.6999151 47.9454452,48.9931981 C47.9914726,50.3146274 46.9616096,51.4231557 45.6447945,51.4693443 C45.6160274,51.470066 45.5879795,51.4707877 45.5599315,51.4707877" id="Fill-649" stroke="none" fill="#E59E7F" fill-rule="evenodd" mask="url(#mask-4)"></path>
                        <path d="M47.9454452,48.3869717 C47.9914726,49.7084009 46.9616096,50.8169292 45.6447945,50.8631179 C44.3279795,50.9093066 43.2226027,49.8751132 43.1765753,48.553684 C43.1312671,47.2322547 44.1611301,46.1237264 45.4779452,46.0775377 C46.7947603,46.0313491 47.8994178,47.0655425 47.9454452,48.3869717" id="Fill-650" stroke="none" fill="#2D2119" fill-rule="evenodd" mask="url(#mask-4)"></path>
                        <path d="M46.967363,49.5207594 C46.9788699,49.8512972 46.7214041,50.1284292 46.3920205,50.1399764 C46.062637,50.1515236 45.7864726,49.8931557 45.7749658,49.5626179 C45.7634589,49.2320802 46.0209247,48.9549481 46.3503082,48.9434009 C46.6796918,48.9318538 46.9558562,49.1909434 46.967363,49.5207594" id="Fill-651" stroke="none" fill="#FFFFFE" fill-rule="evenodd" mask="url(#mask-4)"></path>
                        <path d="M59.4544521,51.4707877 C58.1750342,51.4707877 57.1164041,50.4531934 57.0718151,49.1599104 C57.0257877,47.8384811 58.0556507,46.7299528 59.3724658,46.6837642 C59.4005137,46.6830425 59.4292808,46.6823208 59.4573288,46.6823208 C60.7367466,46.6823208 61.7953767,47.6999151 61.8399658,48.9931981 C61.8859932,50.3146274 60.8561301,51.4231557 59.5393151,51.4693443 C59.5105479,51.470066 59.4825,51.4707877 59.4544521,51.4707877" id="Fill-652" stroke="none" fill="#DB8162" fill-rule="evenodd" mask="url(#mask-4)"></path>
                        <path d="M61.8399658,48.3869717 C61.8859932,49.7084009 60.8561301,50.8169292 59.5393151,50.8631179 C58.2225,50.9093066 57.1171233,49.8751132 57.0718151,48.553684 C57.0257877,47.2322547 58.0556507,46.1237264 59.3724658,46.0775377 C60.6892808,46.0313491 61.7939384,47.0655425 61.8399658,48.3869717" id="Fill-653" stroke="none" fill="#2D2119" fill-rule="evenodd" mask="url(#mask-4)"></path>
                        <path d="M60.8618836,49.5207594 C60.8733904,49.8512972 60.6159247,50.1284292 60.2865411,50.1399764 C59.9571575,50.1515236 59.6809932,49.8931557 59.6694863,49.5626179 C59.6579795,49.2320802 59.9154452,48.9549481 60.2448288,48.9434009 C60.5742123,48.9318538 60.8503767,49.1909434 60.8618836,49.5207594" id="Fill-654" stroke="none" fill="#FFFFFE" fill-rule="evenodd" mask="url(#mask-4)"></path>
                        <path d="M66.6649315,53.045533 C66.6649315,55.0338113 65.4466438,57.9776179 63.7177397,59.2824481 C62.9748288,59.8432075 61.9816438,59.9355849 61.1265411,59.5689623 C59.6853082,58.950467 56.4655479,58.3962028 52.4777055,58.3962028 C48.4905822,58.3962028 45.2708219,58.950467 43.829589,59.5689623 C42.9744863,59.9355849 41.9813014,59.8432075 41.2383904,59.2824481 C39.5094863,57.9776179 38.2911986,55.0338113 38.2911986,53.045533 C38.2911986,53.045533 35.8848288,44.3375236 37.6942808,37.9389481 C38.5903767,34.7721368 42.4595548,32.9880991 45.642637,33.7870189 C47.9533562,34.3679858 50.3525342,34.5606792 52.4777055,34.5657311 C54.6035959,34.5606792 57.0020548,34.3679858 59.3134932,33.7870189 C62.4965753,32.9880991 66.3657534,34.7721368 67.2618493,37.9389481 C69.0713014,44.3375236 66.6649315,53.045533 66.6649315,53.045533 Z M46.3380822,20.0242358 C29.9825342,14.5681981 33.1224658,45.9230943 34.7478082,51.1416934 C35.0433904,52.0965 36.3156164,53.5673208 36.3213699,53.5673208 C36.8168836,54.4983113 35.0103082,72.3206462 52.4777055,72.3206462 C69.9458219,72.3206462 68.1392466,54.4983113 68.6347603,53.5673208 C68.6405137,53.5673208 69.9127397,52.0965 70.2083219,51.1416934 C71.8336644,45.9230943 76.8010274,10.6277264 46.3380822,20.0242358 Z" id="Fill-655" stroke="none" fill="#44372D" fill-rule="evenodd" mask="url(#mask-4)"></path>
                        <path d="M48.5092808,61.2497972 L56.4094521,61.2497972 C56.6590068,61.2497972 56.784863,61.5601274 56.6000342,61.728283 C56.0340411,62.2421321 54.8085616,62.9862028 52.459726,62.9862028 C50.1101712,62.9862028 48.885411,62.2421321 48.3194178,61.728283 C48.1338699,61.5601274 48.259726,61.2497972 48.5092808,61.2497972" id="Fill-656" stroke="none" fill="#F1C9B1" fill-rule="evenodd" mask="url(#mask-4)"></path>
                        <path d="M61.0848288,52.6983962 C56.7596918,52.6983962 55.3738356,51.7226604 54.6381164,48.1581934 C54.4734247,47.3628821 54.6071918,46.6924245 55.0336644,46.1663066 C55.637774,45.4215142 57.1775342,44.5338255 61.0848288,44.5338255 C66.7483562,44.5338255 66.7483562,47.3542217 66.7483562,48.2816038 C66.7483562,50.949 66.3542466,52.6983962 61.0848288,52.6983962 Z M49.2716096,48.1581934 C48.5358904,51.7226604 47.1500342,52.6983962 42.8248973,52.6983962 C37.5554795,52.6983962 37.1613699,50.949 37.1613699,48.2816038 C37.1613699,47.3542217 37.1613699,44.5338255 42.8248973,44.5338255 C46.7321918,44.5338255 48.2719521,45.4215142 48.8760616,46.1663066 C49.3032534,46.6924245 49.4363014,47.3628821 49.2716096,48.1581934 Z M68.8584247,44.2119481 L65.5890411,44.2119481 C64.5555822,43.6685094 63.1093151,43.3213726 61.0848288,43.3213726 C57.7190753,43.3213726 55.4342466,43.9687358 54.2619863,45.2331509 C53.7075,44.9271509 52.879726,44.5792925 51.9433562,44.5792925 C51.0156164,44.5792925 50.1943151,44.9206557 49.6398288,45.2244906 C48.4646918,43.9665708 46.1834589,43.3213726 42.8248973,43.3213726 C40.800411,43.3213726 39.3541438,43.6685094 38.3214041,44.2119481 L35.0282877,44.2119481 L35.0282877,46.5747877 L36.1092123,46.9558443 C35.9984589,47.398967 35.9531507,47.8478632 35.9531507,48.2816038 C35.9531507,51.8467925 37.0779452,53.9108491 42.8248973,53.9108491 C47.6793493,53.9108491 49.604589,52.5208585 50.4546575,48.4050142 C50.5589384,47.9012689 50.569726,47.4213396 50.5006849,46.9702783 C50.7689384,46.7985142 51.2112329,46.6476792 51.9433562,46.6476792 C52.6934589,46.6476792 53.1415068,46.8057311 53.4076027,46.9839906 C53.34,47.4307217 53.352226,47.9055991 53.4550685,48.4050142 C54.305137,52.5208585 56.2303767,53.9108491 61.0848288,53.9108491 C66.8317808,53.9108491 67.9565753,51.8467925 67.9565753,48.2816038 C67.9565753,47.8456981 67.9105479,47.3939151 67.7983562,46.9479057 L68.8584247,46.5747877 L68.8584247,44.2119481 Z" id="Fill-657" stroke="none" fill="#3C3A41" fill-rule="evenodd" mask="url(#mask-4)"></path>
                    </g>
                </g>
            </g>
        </g>
    </g>
</svg>