<?xml version="1.0" encoding="UTF-8"?>
<svg width="80px" height="80px" viewBox="0 0 80 80" version="1.1" xmlns="http://www.w3.org/2000/svg" xmlns:xlink="http://www.w3.org/1999/xlink">
    <!-- Generator: Sketch 51.3 (57544) - http://www.bohemiancoding.com/sketch -->
    <title>Group 48</title>
    <desc>Created with Sketch.</desc>
    <defs>
        <circle id="path-1" cx="40" cy="40" r="40"></circle>
        <linearGradient x1="50%" y1="0%" x2="50%" y2="100%" id="linearGradient-3">
            <stop stop-color="#FDEE7A" offset="0%"></stop>
            <stop stop-color="#FAD844" offset="100%"></stop>
        </linearGradient>
    </defs>
    <g id="Home_Page" stroke="none" stroke-width="1" fill="none" fill-rule="evenodd">
        <g id="001_Linarc_Marketing_Page" transform="translate(-580.000000, -2590.000000)">
            <g id="Group-48" transform="translate(580.000000, 2590.000000)">
                <mask id="mask-2" fill="white">
                    <use xlink:href="#path-1"></use>
                </mask>
                <use id="Mask" fill="#394E7B" xlink:href="#path-1"></use>
                <g mask="url(#mask-2)">
                    <g transform="translate(-4.000000, 2.000000)">
                        <path d="M61.4794521,36.217629 C61.4794521,35.9359905 62.2961643,30.2419355 62.2961643,30.2419355 C66.2159067,30.3784738 68.5422269,30.3518872 69.4622782,31.0084429 C70.1689842,31.5117873 70.0180234,32.8735658 69.2536951,33.5742825 C67.2669177,35.393442 61.4794521,36.6065155 61.4794521,36.217629" id="Fill-9" fill="#BE9F34"></path>
                        <path d="M26.5205479,36.2176236 C26.5205479,35.9364147 25.7034287,30.2419355 25.7034287,30.2419355 C21.7835421,30.3780334 19.4583713,30.3514447 18.5374456,31.0080493 C17.8312755,31.5114312 17.9817474,32.8733113 18.7464872,33.5740801 C20.7330963,35.3933752 26.5205479,36.606539 26.5205479,36.2176236" id="Fill-10" fill="#BE9F34"></path>
                        <g id="Group-45" stroke-width="1" fill="none" transform="translate(0.000000, 12.096774)">
                            <polyline id="Fill-884" fill="#F1C9B1" points="51.2565338 66.2286666 51.2565338 57.051678 36.9031357 57.051678 36.9031357 66.2286666 33.3147862 66.5078992 36.9031357 89.7064767 51.2565338 89.7064767 54.8448833 66.5078992 51.2565338 66.2286666"></polyline>
                            <path d="M51.2565338,66.2286666 L36.9031357,60.4470096 L36.9031357,58.2688239 C39.3517571,60.1129583 42.0028639,61.2752855 44.4395241,61.2752855 L44.4403785,61.2752855 C46.6395241,61.2752855 49.0146697,60.3279503 51.2565338,58.7878882 L51.2565338,66.2286666" id="Fill-885" fill="#E7A689"></path>
                            <path d="M86.644495,101.743458 C82.5187474,92.2512623 72.1236406,73.9486776 68.9744367,70.9190894 C63.8413882,65.9802695 57.8710581,66.155004 52.4603396,65.7421509 C52.4603396,65.7421509 52.4500872,65.826092 52.4312911,65.9717041 L44.0789804,88.8799138 L35.7275241,65.9717041 C35.708728,65.826092 35.6984755,65.7421509 35.6984755,65.7421509 C30.2877571,66.155004 24.317427,65.9802695 19.1843785,70.9190894 C16.0351746,73.9486776 5.64006778,92.2512623 1.51517458,101.743458 C-0.172204062,105.626162 0.12169885,110.082749 2.29948526,113.71106 L12.8688833,135.767011 L41.8003785,135.767011 L44.0789804,127.13307 L46.3584367,135.767011 L75.2899319,135.767011 L85.8593299,113.71106 C88.0379707,110.082749 88.3310192,105.626162 86.644495,101.743458" id="Fill-886" fill="#3C3A41"></path>
                            <polyline id="Fill-887" fill="#FFFFFE" points="27.4956794 71.5220948 35.3627086 74.5045732 32.2741649 78.8215438 44.0798348 88.8062513 35.6984755 65.6684883 27.4956794 71.5220948"></polyline>
                            <polyline id="Fill-888" fill="#FFFFFE" points="60.6639901 71.5220948 52.4483785 65.766134 44.0798348 88.8062513 55.8855047 78.8215438 52.796961 74.5045732 60.6639901 71.5220948"></polyline>
                            <path d="M52.708961,58.8606942 C47.764728,58.8204368 43.7551746,52.6636145 43.7551746,45.0181226 C43.7551746,37.3734873 33.1926115,1.97775496 54.5236406,2.9730565 C71.6332328,3.77220998 75.9392522,59.04999 52.708961,58.8606942" id="Fill-889" fill="#44372D"></path>
                            <path d="M60.8809998,32.0637848 L60.8809998,24.5810359 C60.8809998,16.6340413 51.7042231,6.59365859 44.4395241,6.59365859 C37.1756794,6.59365859 27.9989027,16.6340413 27.9989027,24.5810359 L27.9989027,32.0637848 C25.9808833,32.0637848 24.3456212,33.6749399 24.3456212,35.6612603 L24.3456212,39.4026347 C24.3456212,41.3898117 25.9808833,43.0001102 27.9989027,43.0001102 C27.9989027,50.9471048 37.1756794,61.2752855 44.4395241,61.2752855 C51.7042231,61.2752855 60.8809998,50.9471048 60.8809998,43.0001102 C62.8990192,43.0001102 64.5351357,41.3898117 64.5351357,39.4026347 L64.5351357,35.6612603 C64.5351357,33.6749399 62.8990192,32.0637848 60.8809998,32.0637848" id="Fill-890" fill="#F1C9B1"></path>
                            <path d="M51.2565338,58.7878882 C51.2975435,58.7596223 51.340262,58.7296434 51.382126,58.7005209 C51.340262,58.7304999 51.2983979,58.7587658 51.2565338,58.7878882" id="Fill-891" fill="#AE5764"></path>
                            <path d="M44.8786697,6.60565017 C44.7317183,6.59794129 44.5856212,6.59365859 44.4395241,6.59365859 L44.4403785,6.59365859 C44.5856212,6.59365859 44.7317183,6.59794129 44.8786697,6.60565017" id="Fill-892" fill="#B9A191"></path>
                            <path d="M44.4403785,61.2752855 C46.6395241,61.2752855 49.0138154,60.3288069 51.2565338,58.7878882 C49.0146697,60.3279503 46.6395241,61.2752855 44.4403785,61.2752855" id="Fill-893" fill="#D46E44"></path>
                            <path d="M51.382126,58.7005209 C56.4921066,55.1313114 60.8809998,48.4965388 60.8809998,43.0001102 C62.8990192,43.0001102 64.5351357,41.3898117 64.5351357,39.4026347 L64.5351357,35.6612603 L64.5351357,39.4026347 C64.5351357,41.3898117 62.8990192,43.0001102 60.8809998,43.0001102 C60.8809998,48.4965388 56.4921066,55.1313114 51.382126,58.7005209 M60.5554853,21.8657984 C58.8997183,14.6879784 51.2514076,6.95083651 44.8786697,6.60565017 C51.2505532,6.95083651 58.8997183,14.6879784 60.5554853,21.8657984" id="Fill-894" fill="#2A1D16"></path>
                            <path d="M44.4403785,61.2752855 L44.4403785,47.9646263 L40.7862425,47.2451312 C40.7862425,47.2451312 41.7747474,41.314436 44.4403785,35.7332098 L44.4403785,6.59365859 C44.5856212,6.59365859 44.7317183,6.59794129 44.8786697,6.60565017 C51.2514076,6.95083651 58.8997183,14.6879784 60.5554853,21.8657984 C60.7673688,22.7857243 60.8809998,23.6962282 60.8809998,24.5810359 L60.8809998,32.0637848 C62.8990192,32.0637848 64.5351357,33.6749399 64.5351357,35.6612603 L64.5351357,39.4026347 C64.5351357,41.3898117 62.8990192,43.0001102 60.8809998,43.0001102 C60.8809998,48.4965388 56.4921066,55.1313114 51.382126,58.7005209 C51.340262,58.7296434 51.2975435,58.7596223 51.2565338,58.7878882 C49.0138154,60.3288069 46.6395241,61.2752855 44.4395241,61.2752855 M52.9635629,34.2591014 C52.9302425,34.2591014 52.8960678,34.2591014 52.8627474,34.2608145 C51.2983979,34.3156331 50.0749416,35.6312813 50.1287668,37.1996093 C50.1825921,38.7336756 51.4402231,39.9422561 52.9601455,39.9422561 C52.9934658,39.9422561 53.0267862,39.9413995 53.060961,39.9396864 C54.6253105,39.8848678 55.8487668,38.5692196 55.7940872,37.0008916 C55.7411163,35.4668253 54.4834853,34.2591014 52.9635629,34.2591014" id="Fill-895" fill="#E7A689"></path>
                            <path d="M35.0183979,39.9422561 C33.4984755,39.9422561 32.2408445,38.7336756 32.1870192,37.1996093 C32.1323396,35.6312813 33.3566503,34.3156331 34.9209998,34.2608145 C34.9543202,34.2591014 34.988495,34.2591014 35.0218154,34.2591014 C36.5417377,34.2591014 37.7993688,35.4668253 37.8523396,37.0008916 C37.9070192,38.5692196 36.6835629,39.8848678 35.1192134,39.9396864 C35.0850387,39.9413995 35.0517183,39.9422561 35.0183979,39.9422561" id="Fill-896" fill="#DC8353"></path>
                            <path d="M37.8523396,36.2813965 C37.9070192,37.8497245 36.6835629,39.1662292 35.1192134,39.2210479 C33.5548639,39.27501 32.2416989,38.0484422 32.1870192,36.4801142 C32.133194,34.9117862 33.3566503,33.596138 34.9209998,33.5413194 C36.4853493,33.4865007 37.79766,34.7130685 37.8523396,36.2813965" id="Fill-897" fill="#2D211A"></path>
                            <path d="M36.6903979,35.4693949 C36.7040678,35.861691 36.3982037,36.1906031 36.0069027,36.2043078 C35.6156018,36.2180124 35.2875241,35.9113705 35.2738542,35.5190743 C35.2601843,35.1267782 35.5660484,34.7978662 35.9573493,34.7841615 C36.3486503,34.7704568 36.676728,35.0770988 36.6903979,35.4693949" id="Fill-898" fill="#FFFFFE"></path>
                            <path d="M38.4674853,34.1109197 C37.9446115,32.8937738 36.604961,31.9704218 35.1337377,31.8136746 C34.2315241,31.7151723 32.5390192,31.8487928 31.0848833,33.6946404 C31.0156794,33.7006361 30.9516018,33.7023492 30.8704367,33.6937838 C30.7081066,33.6792226 30.4834076,33.6269736 30.2638348,33.532754 C29.8178542,33.3528802 29.4462037,32.9760018 29.4462037,32.9760018 L29.3445338,32.9580144 L29.3035241,33.0770737 C29.3035241,33.0770737 29.3590581,33.2004157 29.4667086,33.3777199 C29.5717959,33.5567371 29.7383979,33.7880034 29.9485726,33.9892907 C30.157893,34.1922911 30.4073688,34.3653126 30.6175435,34.4698107 C30.7217765,34.5237728 30.8166115,34.5606041 30.8866697,34.5854438 L31.0131163,34.6214186 C31.2087668,34.641119 31.3864755,34.5357644 31.4719124,34.3713084 C32.4245338,33.0376728 33.6983979,32.3815618 35.0576989,32.528887 C36.2597959,32.6573683 37.3909804,33.4248297 37.8079124,34.3961481 C37.8882231,34.5785915 38.0983979,34.6625326 38.2795241,34.5837307 C38.4615047,34.5049289 38.5460872,34.2933631 38.4674853,34.1109197" id="Fill-899" fill="#2D211A"></path>
                            <path d="M52.9601455,39.9422561 C51.4402231,39.9422561 50.1825921,38.7336756 50.1287668,37.1996093 C50.0749416,35.6312813 51.2983979,34.3156331 52.8627474,34.2608145 C52.8960678,34.2591014 52.9302425,34.2591014 52.9635629,34.2591014 C54.4834853,34.2591014 55.7411163,35.4668253 55.7940872,37.0008916 C55.8487668,38.5692196 54.6253105,39.8848678 53.060961,39.9396864 C53.0267862,39.9413995 52.9934658,39.9422561 52.9601455,39.9422561" id="Fill-900" fill="#D46E44"></path>
                            <path d="M55.7940872,36.2813965 C55.8487668,37.8497245 54.6253105,39.1662292 53.060961,39.2210479 C51.4966115,39.27501 50.1834464,38.0484422 50.1287668,36.4801142 C50.0749416,34.9117862 51.2983979,33.596138 52.8627474,33.5413194 C54.4270969,33.4865007 55.7394076,34.7130685 55.7940872,36.2813965" id="Fill-901" fill="#2D211A"></path>
                            <path d="M54.6321455,35.4693949 C54.6458154,35.861691 54.3399513,36.1906031 53.9486503,36.2043078 C53.5573493,36.2180124 53.2292717,35.9113705 53.2156018,35.5190743 C53.2019319,35.1267782 53.5077959,34.7978662 53.8990969,34.7841615 C54.2903979,34.7704568 54.6184755,35.0770988 54.6321455,35.4693949" id="Fill-902" fill="#FFFFFE"></path>
                            <path d="M49.5144755,34.1109197 C50.0373493,32.8937738 51.3769998,31.9704218 52.8482231,31.8136746 C53.7495823,31.7151723 55.4429416,31.8487928 56.8970775,33.6946404 C56.9662814,33.7006361 57.030359,33.7023492 57.1115241,33.6937838 C57.2729998,33.6792226 57.4985532,33.6269736 57.7172717,33.532754 C58.1641066,33.3528802 58.5357571,32.9760018 58.5357571,32.9760018 L58.637427,32.9580144 L58.6775823,33.0770737 C58.6775823,33.0770737 58.6220484,33.2004157 58.5152522,33.3777199 C58.4101649,33.5567371 58.2435629,33.7880034 58.0325338,33.9892907 C57.8240678,34.1922911 57.5745921,34.3653126 57.3644173,34.4698107 C57.2601843,34.5237728 57.1653493,34.5606041 57.0952911,34.5854438 L56.9688445,34.6214186 C56.773194,34.641119 56.5954853,34.5357644 56.509194,34.3713084 C55.557427,33.0376728 54.2835629,32.3815618 52.9234076,32.528887 C51.7221649,32.6573683 50.5909804,33.4248297 50.1740484,34.3961481 C50.0937377,34.5785915 49.8827086,34.6625326 49.7024367,34.5837307 C49.5204561,34.5049289 49.4358736,34.2933631 49.5144755,34.1109197" id="Fill-903" fill="#2D211A"></path>
                            <path d="M49.821194,50.3526648 C49.821194,53.1783961 47.2503979,55.4687888 44.0798348,55.4687888 C40.9084173,55.4687888 38.3384755,53.1783961 38.3384755,50.3526648 L49.821194,50.3526648" id="Fill-904" fill="#E05844"></path>
                            <path d="M47.9467086,52.2713184 L40.0865144,52.2713184 C39.6149027,52.2713184 39.2321455,51.8875877 39.2321455,51.4147766 L39.2321455,50.3526648 L48.8010775,50.3526648 L48.8010775,51.4147766 C48.8010775,51.8875877 48.4183202,52.2713184 47.9467086,52.2713184" id="Fill-905" fill="#FFFFFE"></path>
                            <path d="M54.3203008,41.6810359 C50.1902814,41.6810359 47.7305532,39.4968543 46.8018542,35.0025796 C46.6079124,34.0655229 46.7659707,33.2749349 47.2717571,32.6530856 C47.9783202,31.7819826 49.7742037,30.745567 54.3203008,30.745567 C56.6561455,30.7404278 59.3559513,30.7284362 60.2837959,31.6543578 C60.7195241,32.0903376 60.9314076,32.7575837 60.9314076,33.6946404 C60.9314076,35.0282759 60.612728,41.6810359 54.3203008,41.6810359 Z M42.1199124,35.0025796 C41.190359,39.4968543 38.7314853,41.6810359 34.6014658,41.6810359 C28.3090387,41.6810359 27.990359,35.0282759 27.990359,33.6946404 C27.990359,32.7575837 28.2022425,32.0903376 28.6379707,31.6543578 C29.4795241,30.8140904 32.540728,30.745567 34.6014658,30.745567 C39.1467086,30.745567 40.9434464,31.7819826 41.6500095,32.6530856 C42.1549416,33.2749349 42.3129998,34.0655229 42.1199124,35.0025796 Z M60.788728,30.4260769 C59.3448445,29.4436235 56.7074076,29.4384843 54.3203008,29.4496193 C50.300495,29.4496193 47.6100872,30.2402074 46.3105921,31.7939742 C45.8629027,31.5370116 45.2041843,31.4624925 44.4608833,31.4624925 C43.7175823,31.4624925 43.0588639,31.5370116 42.6111746,31.7939742 C41.3116794,30.2402074 38.6204173,29.4496193 34.6014658,29.4496193 C32.2135047,29.4444801 29.5769222,29.4453366 28.1330387,30.4260769 L25.6100872,30.4260769 L25.6100872,33.1601583 L26.700262,33.7674464 C26.7241843,38.0330244 28.8003008,42.9769836 34.6014658,42.9769836 C39.372262,42.9769836 42.3266697,40.381662 43.3843785,35.265538 C43.4612717,34.8946554 43.4920289,34.5349078 43.4860484,34.1880084 C43.5578154,33.9036365 43.9277571,33.6209778 44.4608833,33.6209778 C44.9940095,33.6209778 45.3639513,33.9036365 45.4357183,34.1880084 C45.4297377,34.5349078 45.460495,34.8946554 45.5365338,35.265538 C46.5950969,40.381662 49.5495047,42.9769836 54.3203008,42.9769836 C60.1206115,42.9769836 62.1975823,38.0330244 62.2206503,33.7674464 L63.3116794,33.1601583 L63.3116794,30.4260769 L60.788728,30.4260769 Z" id="Fill-906" fill="#2C2B30"></path>
                            <path d="M27.2556018,59.04999 C22.0695823,41.6990232 18.4436406,30.9322931 21.276728,19.2250801 C26.7788639,-3.51353436 54.4749416,-4.86173112 57.2798348,9.40825486 C57.8770387,12.445552 65.1178154,29.3468343 60.9015047,31.2826187 C60.9015047,31.2826187 54.9491163,24.1758916 51.6213493,17.5179924 C27.2556018,17.4426167 35.4088445,53.657203 27.2556018,59.04999" id="Fill-907" fill="#44372D"></path>
                        </g>
                        <g id="Group-43" stroke-width="1" fill="none" transform="translate(16.876712, 0.000000)">
                            <path d="M40.4602934,19.4695417 C28.6246373,12.6410829 16.7716359,14.1642731 9.81728569,26.7262759 C16.9534819,15.4429731 27.9895751,13.4564212 40.4602934,19.4695417" id="Fill-103-Copy" fill="#19110E"></path>
                            <path d="M37.3403609,16.0169119 C28.0544653,6.88779544 13.7110131,9.00076932 6.75722246,21.5622152 C13.8934186,10.2789125 27.062985,8.17429245 37.3403609,16.0169119" id="Fill-104-Copy" fill="#19110E"></path>
                            <path d="M3.69715924,29.9877617 C21.0603739,28.9680318 33.4286989,27.7377843 50.7437943,29.8140011 C48.0569498,10.6713711 41.260386,1.31781388 26.4777058,1.31781388 C11.6967042,1.31781388 4.50119828,12.0575577 3.69715924,29.9877617" id="Fill-115-Copy" fill="url(#linearGradient-3)"></path>
                            <path d="M49.7384595,30.331663 C50.0344489,30.3656354 50.3321168,30.4007217 50.6320228,30.4363649 C48.259632,13.5359154 42.6833946,4.26756774 31.2377283,2.32724065 L31.7720757,2.63076483 C42.4942748,10.3514177 44.3843541,14.5667838 46.3482908,27.6522963 C41.7713671,27.0602849 37.4165752,26.5857847 32.8189491,26.1753309 C39.907026,27.2997627 45.3775129,28.4882409 49.7384595,30.331663" id="Fill-116-Copy" fill="#FDE98A"></path>
                            <path d="M3.69715924,30.5789377 C4.42845988,30.5360545 5.15080811,30.4926143 5.86532297,30.4491742 C10.1082096,29.5475124 18.2582671,28.6129921 35.2007181,27.6211085 C20.0739293,25.4986669 10.375663,26.3023098 10.470223,25.5220577 C11.4779295,17.2511629 14.4932158,6.68796427 21.6987932,2.32724065 C10.1339478,4.4641623 4.40943599,14.7015597 3.69715924,30.5789377" id="Fill-117-Copy" fill="#E2C02C"></path>
                            <path d="M24.1021287,0.828028479 C24.0198783,1.49689554 25.0790613,8.76421133 25.1926451,10.6889445 L28.2476577,10.6889445 C28.3327057,9.17522206 29.1054113,1.28136552 28.9901489,0.871468638 C28.8558626,0.396411517 27.922573,0.352414434 26.7419729,0.322340478 C25.6044563,0.292823447 24.1720694,0.256623314 24.1021287,0.828028479" id="Fill-118-Copy" fill="#FAD844"></path>
                            <path d="M19.6002739,2.37701164 C18.9439497,2.18932788 17.803076,2.5646954 16.9889655,2.96456763 C16.0461639,3.42792933 15.6119717,3.53987127 16.2151408,4.38751129 C19.5370474,9.05899913 20.2655504,16.4109675 20.7573739,21.8476705 L22.2848802,20.5004686 C22.2569039,17.5064392 23.5729094,3.50979732 19.6002739,2.37701164" id="Fill-119-Copy" fill="#FAD844"></path>
                            <path d="M34.1084496,2.37701164 C34.7658928,2.18932788 35.9067666,2.5646954 36.7203176,2.96456763 C37.6631191,3.42792933 38.0973114,3.53987127 37.4947017,4.38751129 C34.1727951,9.05899913 33.4448516,16.4109675 32.9524687,21.8476705 L31.4249623,20.5004686 C31.4529386,17.5064392 30.1369332,3.50979732 34.1084496,2.37701164" id="Fill-120-Copy" fill="#FAD844"></path>
                            <path d="M52.4844652,30.9733539 C51.1175429,27.1038382 37.637999,25.469263 27.6079337,25.5466756 C15.9753856,25.6357836 3.69770391,28.004943 0.637096015,31.3203182 C5.29235336,30.518903 17.9477152,28.5886005 25.0766376,28.3758551 C32.7494193,28.1480728 47.896351,29.4562899 52.4844652,30.9733539" id="Fill-121-Copy" fill="#FAD844"></path>
                            <path d="M17.5143605,2.32724065 C17.3302764,2.40186861 17.1529066,2.4815089 16.9889655,2.56170612 C16.0461639,3.02506781 15.6119717,3.13700976 16.2151408,3.98464978 C19.517464,8.62940521 20.2571575,15.9228965 20.748981,21.3495748 C21.0410536,17.7730017 20.6605759,8.3208687 17.7012422,3.95346197 C17.1377994,3.12141585 16.7825003,2.93373209 17.5143605,2.32724065" id="Fill-122-Copy" fill="#E2C02C"></path>
                            <path d="M19.5614727,2.37700918 C19.1552568,2.26061183 18.5627186,2.36085835 17.9774543,2.54854211 C18.1766456,2.53684668 18.3596106,2.54965596 18.5145994,2.59365304 C21.7609699,3.52037643 22.2035551,13.8791835 22.2723768,19.2691047 C22.4312822,14.790313 23.1295708,3.39451135 19.5614727,2.37700918" id="Fill-123-Copy" fill="#FDE98A"></path>
                            <path d="M28.7774721,10.6805604 L28.8742701,10.6805604 C28.9593181,9.16683795 29.7320237,1.27298141 29.6167613,0.863084526 C29.482475,0.388027405 28.5491854,0.344030321 27.3685853,0.313956365 L27.157644,0.308387114 C27.2622753,0.329550269 27.3590734,0.350156498 27.4502761,0.369091952 C28.3421608,0.557889564 28.8821035,0.894272332 28.753972,2.83738405 C28.5810784,5.44936282 28.5279234,8.23064683 28.7774721,10.6805604" id="Fill-124-Copy" fill="#FDE98A"></path>
                            <path d="M24.1021287,0.827973753 C24.0198783,1.49684081 25.0790613,8.7641566 25.1926451,10.6888898 L25.276574,10.6888898 C25.5317179,8.22839464 25.4791225,5.42928903 25.3056694,2.8028302 C25.1769783,0.859161559 25.7169211,0.522778792 26.6088057,0.333981179 L26.6753893,0.320614976 C25.5490632,0.29165487 24.1709504,0.26770709 24.1021287,0.827973753" id="Fill-125-Copy" fill="#E2C02C"></path>
                            <path d="M35.5733879,2.32724065 C35.757472,2.40186861 35.9348418,2.4815089 36.0993425,2.56170612 C37.0415845,3.02506781 37.4757768,3.13700976 36.8731671,3.98464978 C33.5708439,8.62940521 32.8317099,15.9228965 32.3393269,21.3495748 C32.0466948,17.7730017 32.4271725,8.3208687 35.3865062,3.95346197 C35.9505085,3.12141585 36.3058076,2.93373209 35.5733879,2.32724065" id="Fill-126-Copy" fill="#FDE98A"></path>
                            <path d="M34.1089716,2.37700918 C34.5157471,2.26061183 35.1082852,2.36085835 35.6935495,2.54854211 C35.4943582,2.53684668 35.3119527,2.54965596 35.1558449,2.59365304 C31.9105934,3.52037643 31.4674487,13.8791835 31.398627,19.2691047 C31.2397216,14.790313 30.541433,3.39451135 34.1089716,2.37700918" id="Fill-127-Copy" fill="#E2C02C"></path>
                            <path d="M52.1488302,31.2849804 C51.0448852,30.2201396 37.0729583,26.4842859 28.0069566,26.5544585 C22.0183485,26.6001264 24.1456668,28.6613062 26.2976042,28.6986202 C35.3233201,28.8579008 45.1043963,29.7712579 52.1488302,31.2849804" id="Fill-128-Copy" fill="#FDE98A"></path>
                        </g>
                    </g>
                </g>
            </g>
        </g>
    </g>
</svg>